<svg width="10" height="11" viewBox="0 0 10 11" fill="none" xmlns="http://www.w3.org/2000/svg">
<circle cx="4.92907" cy="5.73461" r="4.30627" stroke="#E8E8E8"/>
<path d="M3.83521 4.2301V5.00598H4.88794V7.15588H3.83521V7.92834H6.84985V7.15588H5.84839V4.2301H3.83521ZM4.81958 3.28333C4.81958 3.35624 4.83211 3.4246 4.85718 3.4884C4.88452 3.54993 4.92212 3.60234 4.96997 3.64563C5.01782 3.6912 5.07479 3.72652 5.14087 3.75159C5.20923 3.77665 5.28442 3.78918 5.36646 3.78918C5.53507 3.78918 5.66838 3.74247 5.76636 3.64905C5.86662 3.55334 5.91675 3.43144 5.91675 3.28333C5.91675 3.13521 5.86662 3.01444 5.76636 2.92102C5.66838 2.82532 5.53507 2.77747 5.36646 2.77747C5.28442 2.77747 5.20923 2.79 5.14087 2.81506C5.07479 2.84013 5.01782 2.87431 4.96997 2.9176C4.92212 2.96318 4.88452 3.01786 4.85718 3.08167C4.83211 3.14319 4.81958 3.21041 4.81958 3.28333Z" fill="#E8E8E8"/>
</svg>
