<svg xmlns="http://www.w3.org/2000/svg" data-name="Layer 1" width="213.2857208251953" height="44.14285659790039"><rect id="backgroundrect" width="100%" height="100%" x="0" y="0" fill="none" stroke="none"/><title>kinexcs logo</title><g class="currentLayer" style=""><title>Layer 1</title><path d="M116.41000002145768,22.380000001192094 H96.90000002145767 a3.54,3.54 0 1 1 0,-7.08 h19.51 a3.54,3.54 0 1 1 0,7.08 " fill="#429e9b" id="svg_1"/><path d="M107.93000002145767,36.050000001192096 H88.42000002145767 a3.54,3.54 0 1 1 0,-7.08 h19.51 a3.54,3.54 0 1 1 0,7.08 " fill="#ffffff" id="svg_2" class="" fill-opacity="1"/><path d="M107.93000002145767,8.710000001192093 H88.42000002145767 a3.54,3.54 0 1 1 0,-7.08 h19.51 a3.54,3.54 0 1 1 0,7.08 " fill="#c7ad48" id="svg_3"/><path d="M2.145767219463579e-8,2.680000001192093 A2.45,2.45 0 0 1 0.9100000214576722,0.8300000011920929 A3.63,3.63 0 0 1 3.430000021457672,1.1920929243736111e-9 a3.36,3.36 0 0 1 2.34,0.8300000000000001 A2.46,2.46 0 0 1 6.6900000214576725,2.680000001192093 V16.440000001192093 H8.460000021457672 l11,-15.47 A2.58,2.58 0 0 1 20.290000021457672,0.3100000011920929 A3,3 0 0 1 21.540000021457672,0.030000001192092896 a4.5,4.5 0 0 1 1.31,0.14 a3.14,3.14 0 0 1 1.23,0.6300000000000001 a2.73,2.73 0 0 1 1,2.31 A3.09,3.09 0 0 1 24.290000021457672,5.190000001192093 L14.010000021457673,18.84000000119209 L25.630000021457672,32.72000000119209 a2.22,2.22 0 0 1 0.5700000000000001,2 a3.56,3.56 0 0 1 -1.32,2.2 a3.34,3.34 0 0 1 -2.34,0.77 a2.72,2.72 0 0 1 -1.9500000000000002,-0.8900000000000001 L8.810000021457672,22.27000000119209 H6.6900000214576725 V35.00000000119209 a2.47,2.47 0 0 1 -0.92,1.86 a3.36,3.36 0 0 1 -2.34,0.8200000000000001 a3.62,3.62 0 0 1 -2.52,-0.8200000000000001 a2.45,2.45 0 0 1 -0.91,-1.86 z" fill="#ffffff" id="svg_4" class="" fill-opacity="1"/><path d="M31.290000021457672,2.710000001192093 a2.45,2.45 0 0 1 0.92,-1.85 A3.5700000000000003,3.5700000000000003 0 0 1 34.72000002145767,0.030000001192092896 a3.33,3.33 0 0 1 2.35,0.8300000000000001 a2.43,2.43 0 0 1 0.91,1.85 V34.97000000119209 a2.47,2.47 0 0 1 -0.91,1.86 a3.37,3.37 0 0 1 -2.35,0.8300000000000001 a3.62,3.62 0 0 1 -2.51,-0.8300000000000001 A2.48,2.48 0 0 1 31.290000021457672,34.97000000119209 z" fill="#ffffff" id="svg_5" class="" fill-opacity="1"/><path d="M46.560000021457675,2.680000001192093 a2.43,2.43 0 0 1 0.9500000000000001,-1.85 A3.6500000000000004,3.6500000000000004 0 0 1 50.00000002145767,1.1920929243736111e-9 a3.34,3.34 0 0 1 2.11,0.6600000000000001 a2.7600000000000002,2.7600000000000002 0 0 1 1.09,1.51 L68.59000002145767,24.61000000119209 V2.680000001192093 a2.46,2.46 0 0 1 0.92,-1.85 A3.6,3.6 0 0 1 72.02000002145768,1.1920929243736111e-9 a3.26,3.26 0 0 1 2.3200000000000003,0.8300000000000001 a2.49,2.49 0 0 1 0.8900000000000001,1.85 V35.00000000119209 a2.5,2.5 0 0 1 -0.8900000000000001,1.86 a3.26,3.26 0 0 1 -2.3200000000000003,0.8200000000000001 a4.14,4.14 0 0 1 -2.09,-0.48000000000000004 a2.74,2.74 0 0 1 -1.17,-1.29 l-0.17,-0.28 L53.29000002145767,13.420000001192093 V35.00000000119209 a2.5,2.5 0 0 1 -0.8900000000000001,1.86 a3.33,3.33 0 0 1 -2.37,0.8200000000000001 a3.6500000000000004,3.6500000000000004 0 0 1 -2.49,-0.8200000000000001 a2.44,2.44 0 0 1 -0.9500000000000001,-1.86 z" fill="#ffffff" id="svg_6" class="" fill-opacity="1"/><path d="M137.81000002145768,13.800000001192092 L145.19000002145768,1.060000001192093 a2.88,2.88 0 0 1 1.8800000000000001,-1 a3.8,3.8 0 0 1 2.58,0.6000000000000001 A3,3 0 0 1 151.11000002145767,2.530000001192093 a2.37,2.37 0 0 1 -0.32000000000000006,2 l-9,14.34 l8.870000000000001,14.16 a2.34,2.34 0 0 1 0.3400000000000001,2 a3.41,3.41 0 0 1 -1.6,2 a3.2800000000000002,3.2800000000000002 0 0 1 -2.4,0.52 A2.8600000000000003,2.8600000000000003 0 0 1 145.19000002145768,36.53000000119209 l-7.38,-12.56 L130.48000002145767,36.53000000119209 a2.88,2.88 0 0 1 -1.86,1.09 a3.33,3.33 0 0 1 -2.43,-0.52 a3.44,3.44 0 0 1 -1.6,-2 a2.34,2.34 0 0 1 0.3400000000000001,-2 l8.81,-14.16 L124.88000002145768,4.530000001192093 a2.18,2.18 0 0 1 -0.35000000000000003,-2 a3.11,3.11 0 0 1 1.49,-1.9100000000000001 a3.8,3.8 0 0 1 2.58,-0.6000000000000001 a2.91,2.91 0 0 1 1.8800000000000001,1 z" fill="#ffffff" id="svg_7" class="" fill-opacity="1"/><path d="M157.08000002145766,13.870000001192093 A16.69,16.69 0 0 1 157.94000002145768,8.530000001192093 a12.2,12.2 0 0 1 6.8100000000000005,-7.42 A14.19,14.19 0 0 1 170.53000002145768,1.1920929243736111e-9 a15.76,15.76 0 0 1 4.12,0.51 a12.66,12.66 0 0 1 3.29,1.37 a7.26,7.26 0 0 1 2.17,1.94 a3.87,3.87 0 0 1 0.77,2.29 A2.25,2.25 0 0 1 178.59000002145768,8.530000001192093 a5.25,5.25 0 0 1 -1.71,-0.26 a8.12,8.12 0 0 1 -1.7200000000000002,-0.8900000000000001 a11.63,11.63 0 0 0 -2,-1 a8,8 0 0 0 -2.72,-0.4 a6.71,6.71 0 0 0 -4.72,1.83 q-2,1.83 -2,5.65 v10.8 q0,3.8200000000000003 2,5.62 a6.77,6.77 0 0 0 4.72,1.8 a11.12,11.12 0 0 0 2.66,-0.26 a8,8 0 0 0 1.92,-0.77 c0.42000000000000004,-0.26 0.78,-0.49000000000000005 1.08,-0.6500000000000001 a7,7 0 0 1 0.8300000000000001,-0.41000000000000003 a4.06,4.06 0 0 1 0.78,-0.2 a8,8 0 0 1 0.91,-0.05000000000000001 a2.05,2.05 0 0 1 1.6900000000000002,0.6600000000000001 a2.46,2.46 0 0 1 0.54,1.62 a3.87,3.87 0 0 1 -0.77,2.29 a6.93,6.93 0 0 1 -2.17,1.9100000000000001 a13.38,13.38 0 0 1 -3.29,1.34 a15.76,15.76 0 0 1 -4.12,0.51 A14.19,14.19 0 0 1 164.75000002145768,36.53000000119209 a12.25,12.25 0 0 1 -6.8100000000000005,-7.39 a16.6,16.6 0 0 1 -0.8600000000000001,-5.37 z" fill="#ffffff" id="svg_8" class="" fill-opacity="1"/><path d="M197.29000002145767,37.68000000119209 a14.1,14.1 0 0 1 -2.12,-0.19000000000000003 a23.92,23.92 0 0 1 -2.63,-0.6000000000000001 a23.3,23.3 0 0 1 -2.72,-1 A11.79,11.79 0 0 1 187.35000002145767,34.53000000119209 a7.2,7.2 0 0 1 -1.78,-1.7400000000000002 a3.72,3.72 0 0 1 -0.6800000000000002,-2.17 c0,-1.79 1,-2.68 3,-2.68 a3.43,3.43 0 0 1 1.7200000000000002,0.54 a10.39,10.39 0 0 1 1.37,1.06 a8.72,8.72 0 0 0 2.75,1.62 a9.92,9.92 0 0 0 3.77,0.7200000000000001 a5.82,5.82 0 0 0 3.6100000000000003,-1 a3.72,3.72 0 0 0 1.31,-3.17 a3.92,3.92 0 0 0 -1.23,-3 a12.13,12.13 0 0 0 -3.11,-2.08 c-1.26,-0.6100000000000001 -2.6100000000000003,-1.2 -4,-1.77 a20.77,20.77 0 0 1 -4,-2.15 A11,11 0 0 1 186.86000002145767,15.530000001192093 a8.88,8.88 0 0 1 -1.23,-4.88 a11.34,11.34 0 0 1 0.8,-4.34 a9.83,9.83 0 0 1 2.29,-3.37 a10,10 0 0 1 3.66,-2.2 A14.77,14.77 0 0 1 197.29000002145767,1.1920929243736111e-9 a16.06,16.06 0 0 1 5,0.7100000000000001 a14,14 0 0 1 3.6,1.7400000000000002 a8.71,8.71 0 0 1 2.21,2.14 a3.7,3.7 0 0 1 0.7400000000000001,1.86 a3.31,3.31 0 0 1 -0.6600000000000001,2.14 a2.66,2.66 0 0 1 -2.2,0.8300000000000001 a3.26,3.26 0 0 1 -1.6300000000000001,-0.4 a9.66,9.66 0 0 1 -1.35,-0.91 a12.39,12.39 0 0 0 -2.11,-1.32 a8.46,8.46 0 0 0 -3.84,-0.7400000000000001 a5.05,5.05 0 0 0 -3.37,1.11 a4,4 0 0 0 -1.32,3.23 a3.68,3.68 0 0 0 1.23,2.91 a12.4,12.4 0 0 0 3.09,1.94 c1.24,0.5700000000000001 2.59,1.15 4,1.7200000000000002 a19.9,19.9 0 0 1 4,2.14 a11.16,11.16 0 0 1 3.09,3.22 a9.28,9.28 0 0 1 1.23,5 a9.53,9.53 0 0 1 -3.15,7.5600000000000005 q-3.15,2.77 -8.69,2.77 " fill="#ffffff" id="svg_9" class="selected" fill-opacity="1"/></g></svg>